<svg width="26" height="26" xmlns="http://www.w3.org/2000/svg"><path d="M25.924 19.596c-.36-2.384-1.122-4.572-3.085-6.089a8.194 8.194 0 0 0-1.783-1.037 13.318 13.318 0 0 0-2.37-.765 6.763 6.763 0 0 0 .873-.537c1.574-1.14 2.587-2.926 2.587-4.934 0-2.007-1.013-3.792-2.587-4.933a6.783 6.783 0 0 0-1.504-.82A7.121 7.121 0 0 0 13 .45a8.145 8.145 0 0 1 1.92.66 5.927 5.927 0 0 1 1.766.096l.046.01a5.7 5.7 0 0 1 1.325.462c1.744.864 2.933 2.58 2.933 4.556 0 1.842-1.033 3.457-2.586 4.368a7.153 7.153 0 0 1-1.368 1.934c4.626.51 7.424 3.829 7.78 7.522H21.59c.112.343.214.704.305 1.084H26V20.6a6.67 6.67 0 0 0-.076-1.005zm-4.73 4.584a21.696 21.696 0 0 0-.283-1.674 15.464 15.464 0 0 0-.282-1.124c-.494-1.689-1.286-3.197-2.609-4.366a8.264 8.264 0 0 0-1.836-1.22 12.493 12.493 0 0 0-2.44-.9 6.812 6.812 0 0 0 .9-.632c.262-.217.508-.453.738-.708a7.37 7.37 0 0 0 1.175-1.756 7.72 7.72 0 0 0 .75-3.34c0-2.361-1.043-4.462-2.663-5.804a6.775 6.775 0 0 0-1.547-.966 6.474 6.474 0 0 0-1.362-.436l-.088-.017a6.43 6.43 0 0 0-1.192-.112c-3.784 0-6.852 3.284-6.852 7.335 0 3.126 1.827 5.795 4.4 6.851a6.466 6.466 0 0 0 2.696.479c4.223.005 7.164 2.393 8.531 5.592.156.365.291.74.406 1.124.213.716.354 1.46.418 2.218H1.215c.234-3.134 2.177-5.954 5.192-7.57a.595.595 0 0 0 .124-.089c.051-.078.104-.156.158-.234a.677.677 0 0 0-.016-.532.593.593 0 0 0-.534-.353.56.56 0 0 0-.266.068C2.271 17.944 0 21.465 0 25.362V26h21.273v-.638a8.953 8.953 0 0 0-.079-1.182zm-8.097-10.36c-.425.24-.883.425-1.363.544l-.047.011a5.313 5.313 0 0 1-2.861-.11c-2.332-.75-4.031-3.065-4.031-5.805 0-2.74 1.699-5.055 4.03-5.804a5.311 5.311 0 0 1 2.801-.124l.06.013.048.012c.48.119.938.303 1.363.544 1.795 1.016 3.018 3.035 3.018 5.36 0 1.487-.501 2.85-1.332 3.904a5.844 5.844 0 0 1-1.686 1.455z" fill="#999"/></svg>