<svg width="24" height="26" xmlns="http://www.w3.org/2000/svg"><path d="M20.667 1.238c1.105 0 2 .83 2 1.853v18.11l.186-.43-4.333 4.18.48-.19H3.332c-1.102 0-1.999-.833-1.999-1.856V.619l-.666.62h20zM0 0v22.905C0 24.612 1.493 26 3.332 26h15.952l.196-.19 4.334-4.18.186-.18V3.09C24 1.384 22.507 0 20.667 0H0zm18.002 17.952c-1.107 0-2.002.827-2.002 1.856v3.716c0 .342.298.619.667.619.368 0 .666-.277.666-.62v-3.715c0-.343.297-.618.67-.618H21c.368 0 .667-.277.667-.619 0-.341-.299-.619-.667-.619h-2.998zm1.047-12.38c.368 0 .667-.278.667-.62 0-.342-.299-.619-.667-.619H5.333c-.368 0-.666.277-.666.62 0 .341.298.618.666.618H19.05zm0 3.714c.368 0 .667-.277.667-.62 0-.341-.299-.618-.667-.618H5.333c-.368 0-.666.277-.666.619 0 .342.298.619.666.619H19.05zm0 4.333c.368 0 .667-.277.667-.619 0-.342-.299-.619-.667-.619H5.333c-.368 0-.666.277-.666.619 0 .342.298.619.666.619H19.05z" fill="#999"/></svg>