<svg width="10" height="12" xmlns="http://www.w3.org/2000/svg"><path d="M7.5 4.714V3.43C7.5 2.009 6.38.857 5 .857S2.5 2.008 2.5 3.43v1.285h5zm-6.667.857v5.14a.44.44 0 0 0 .12.304.41.41 0 0 0 .294.128h7.506a.425.425 0 0 0 .414-.432v-5.14H.833zM0 5.357v-.214c0-.237.187-.429.417-.429h1.25V3.43C1.667 1.535 3.159 0 5 0c1.84 0 3.333 1.535 3.333 3.429v1.285h1.25c.23 0 .417.19.417.429v6.002a.845.845 0 0 1-.835.855H.835A.845.845 0 0 1 0 11.145V5.357zm5.417 2.357v1.719A.42.42 0 0 1 5 9.857a.423.423 0 0 1-.417-.424V7.714h-.42a.408.408 0 0 1-.293-.126.432.432 0 0 1-.12-.302c0-.235.184-.427.412-.429h1.676a.42.42 0 0 1 .412.429.423.423 0 0 1-.412.428h-.421z" fill="#666"/></svg>