<svg width="25" height="26" xmlns="http://www.w3.org/2000/svg"><path d="M.33 6.804l11.467 6.363c.2.11.442.11.641 0l11.468-6.363a.63.63 0 0 0-.03-1.122L12.408.067a.662.662 0 0 0-.58 0L.358 5.682a.63.63 0 0 0-.03 1.122zm.64-1.107L.94 6.82l11.468-5.615h-.58L23.294 6.82l-.03-1.123-11.468 6.363h.641L.97 5.697zm10.498 7.44v12.226c0 .487.536.793.97.554l12.232-6.76a.634.634 0 0 0 .33-.555v-8.234a.643.643 0 0 0-.65-.636.643.643 0 0 0-.65.636v8.234l.33-.554-12.232 6.76.97.555V13.138a.643.643 0 0 0-.65-.637.643.643 0 0 0-.65.637zm.985 11.68L.985 18.058l.315.545V6.625a.643.643 0 0 0-.65-.636.643.643 0 0 0-.65.636v11.977c0 .223.12.43.315.545l11.468 6.76a.658.658 0 0 0 .891-.216.629.629 0 0 0-.221-.873zm-9.08-13.155l3.823 2.246a.66.66 0 0 0 .892-.218.629.629 0 0 0-.223-.873L4.042 10.57a.658.658 0 0 0-.891.218.629.629 0 0 0 .223.873z" fill="#999"/></svg>